<svg width="32" height="25" viewBox="0 0 32 25" fill="none" xmlns="http://www.w3.org/2000/svg">
<path d="M30.1239 0.00303046C27.0794 0.176579 21.0281 0.808272 17.2925 3.10514C17.0347 3.26362 16.8886 3.54542 16.8886 3.84007V24.1452C16.8886 24.7897 17.5903 25.1971 18.182 24.898C22.0254 22.9549 27.5838 22.4248 30.3322 22.2797C31.2705 22.23 32 21.4745 32 20.5688V1.71619C32.0006 0.727915 31.1472 -0.055005 30.1239 0.00303046ZM14.7075 3.10514C10.9724 0.808272 4.9212 0.177137 1.8767 0.00303046C0.853348 -0.055005 0 0.727915 0 1.71619V20.5693C0 21.4756 0.729457 22.2312 1.66781 22.2803C4.4173 22.4254 9.97851 22.956 13.8219 24.9002C14.4119 25.1988 15.1114 24.792 15.1114 24.1491V3.83002C15.1114 3.53482 14.9658 3.26418 14.7075 3.10514Z" fill="#438866"/>
</svg>
