<svg width="30" height="30" viewBox="0 0 30 30" fill="none" xmlns="http://www.w3.org/2000/svg">
<circle cx="15" cy="15" r="15" fill="white"/>
<path d="M21.9286 13.8929H17.1071V9.07143C17.1071 8.4798 16.6273 8 16.0357 8H14.9643C14.3727 8 13.8929 8.4798 13.8929 9.07143V13.8929H9.07143C8.4798 13.8929 8 14.3727 8 14.9643V16.0357C8 16.6273 8.4798 17.1071 9.07143 17.1071H13.8929V21.9286C13.8929 22.5202 14.3727 23 14.9643 23H16.0357C16.6273 23 17.1071 22.5202 17.1071 21.9286V17.1071H21.9286C22.5202 17.1071 23 16.6273 23 16.0357V14.9643C23 14.3727 22.5202 13.8929 21.9286 13.8929Z" fill="#438866"/>
</svg>
