<svg width="30" height="30" viewBox="0 0 30 30" fill="none" xmlns="http://www.w3.org/2000/svg">
<circle cx="15" cy="15" r="15" fill="white"/>
<path d="M21.796 20.9685L18.8749 18.0478C18.743 17.916 18.5643 17.8428 18.3768 17.8428H17.8992C18.7079 16.8087 19.1884 15.5081 19.1884 14.0932C19.1884 10.7273 16.4607 8 13.0942 8C9.72774 8 7 10.7273 7 14.0932C7 17.459 9.72774 20.1863 13.0942 20.1863C14.5093 20.1863 15.8102 19.7059 16.8445 18.8974V19.3749C16.8445 19.5623 16.9177 19.741 17.0496 19.8729L19.9707 22.7935C20.2461 23.0688 20.6914 23.0688 20.9639 22.7935L21.7931 21.9645C22.0685 21.6891 22.0685 21.2438 21.796 20.9685ZM13.0942 17.8428C11.0228 17.8428 9.34392 16.1672 9.34392 14.0932C9.34392 12.0221 11.0198 10.3435 13.0942 10.3435C15.1656 10.3435 16.8445 12.0191 16.8445 14.0932C16.8445 16.1642 15.1686 17.8428 13.0942 17.8428Z" fill="#448364"/>
</svg>
