<svg xmlns="http://www.w3.org/2000/svg" version="1.0" width="1536.000000pt" height="1024.000000pt" viewBox="0 0 1536.000000 1024.000000" preserveAspectRatio="xMidYMid meet">

<g transform="translate(0.000000,1024.000000) scale(0.100000,-0.100000)" fill="#438866" stroke="none">
<path d="M3260 6672 c-14 -2 -31 -11 -38 -20 -9 -12 -12 -255 -12 -1144 1 -1301 -11 -1168 105 -1168 77 0 254 -24 385 -51 168 -36 419 -126 602 -215 93 -46 176 -84 184 -84 12 0 14 166 14 1164 l0 1165 -27 19 c-98 69 -361 178 -570 237 -191 53 -556 108 -643 97z m43 -19 l-63 -4 -2 -87 -2 -87 -3 79 c-2 44 -2 85 1 93 4 9 24 12 68 11 l63 -2 -62 -3z m220 -20 c-7 -2 -21 -2 -30 0 -10 3 -4 5 12 5 17 0 24 -2 18 -5z m70 -10 c-7 -2 -21 -2 -30 0 -10 3 -4 5 12 5 17 0 24 -2 18 -5z m54 -9 c-3 -3 -12 -4 -19 -1 -8 3 -5 6 6 6 11 1 17 -2 13 -5z m56 -11 c-7 -2 -21 -2 -30 0 -10 3 -4 5 12 5 17 0 24 -2 18 -5z m44 -9 c-3 -3 -12 -4 -19 -1 -8 3 -5 6 6 6 11 1 17 -2 13 -5z m44 -12 c-7 -2 -18 1 -23 6 -8 8 -4 9 13 5 13 -4 18 -8 10 -11z m109 -22 c18 -12 2 -12 -25 0 -13 6 -15 9 -5 9 8 0 22 -4 30 -9z m109 -31 c34 -12 60 -23 58 -25 -2 -2 -35 7 -73 20 -38 14 -64 25 -58 25 5 1 38 -8 73 -20z m-772 -121 c-2 -13 -4 -3 -4 22 0 25 2 35 4 23 2 -13 2 -33 0 -45z m983 42 c8 -5 11 -10 5 -10 -5 0 -17 5 -25 10 -8 5 -10 10 -5 10 6 0 17 -5 25 -10z m50 -20 c8 -5 11 -10 5 -10 -5 0 -17 5 -25 10 -8 5 -10 10 -5 10 6 0 17 -5 25 -10z m45 -20 c3 -6 -1 -7 -9 -4 -18 7 -21 14 -7 14 6 0 13 -4 16 -10z m60 -38 c-3 -3 -11 0 -18 7 -9 10 -8 11 6 5 10 -3 15 -9 12 -12z m-1138 -1449 c-1 -269 -2 -49 -2 487 0 536 1 756 2 488 2 -269 2 -707 0 -975z m1199 1421 c18 -14 18 -14 -6 -3 -31 14 -36 19 -24 19 6 0 19 -7 30 -16z m51 -1721 c-1 -307 -2 -56 -2 557 0 613 1 864 2 558 2 -307 2 -809 0 -1115z m-1227 -256 c11 -5 9 -6 -4 -4 -11 1 -21 9 -23 17 -3 10 -2 11 4 4 4 -6 15 -14 23 -17z m57 -13 c-3 -3 -12 -4 -19 -1 -8 3 -5 6 6 6 11 1 17 -2 13 -5z m91 -1 c-10 -2 -26 -2 -35 0 -10 3 -2 5 17 5 19 0 27 -2 18 -5z m85 -10 c-7 -2 -21 -2 -30 0 -10 3 -4 5 12 5 17 0 24 -2 18 -5z m65 -10 c-10 -2 -26 -2 -35 0 -10 3 -2 5 17 5 19 0 27 -2 18 -5z m55 -10 c-7 -2 -19 -2 -25 0 -7 3 -2 5 12 5 14 0 19 -2 13 -5z m60 -10 c-7 -2 -19 -2 -25 0 -7 3 -2 5 12 5 14 0 19 -2 13 -5z m54 -9 c-3 -3 -12 -4 -19 -1 -8 3 -5 6 6 6 11 1 17 -2 13 -5z m40 -10 c-3 -3 -12 -4 -19 -1 -8 3 -5 6 6 6 11 1 17 -2 13 -5z m80 -20 c-3 -3 -12 -4 -19 -1 -8 3 -5 6 6 6 11 1 17 -2 13 -5z m173 -54 c60 -25 39 -25 -25 0 -27 10 -43 19 -35 19 8 0 35 -9 60 -19z m90 -35 c14 -8 21 -14 15 -14 -5 0 -21 6 -35 14 -14 8 -20 14 -15 14 6 0 21 -6 35 -14z m100 -40 c17 -9 30 -18 30 -21 0 -4 -59 23 -69 32 -10 9 13 3 39 -11z m230 -120 c0 -3 -27 8 -60 25 -33 17 -60 33 -60 35 0 3 27 -8 60 -25 33 -17 60 -33 60 -35z" fill="#438866"/>
<path d="M5715 6669 c-361 -28 -836 -171 -1064 -320 l-51 -34 2 -1160 3 -1160 21 -3 c11 -2 76 26 145 62 140 73 277 129 424 175 210 64 458 111 593 111 52 0 75 5 91 18 l21 17 -2 1143 c-3 1003 -5 1144 -18 1152 -16 11 -21 11 -165 -1z m165 -16 c0 -5 -24 -7 -52 -5 -95 5 -104 9 -25 11 42 0 77 -2 77 -6z m-212 -10 c-10 -2 -28 -2 -40 0 -13 2 -5 4 17 4 22 1 32 -1 23 -4z m-81 -9 c-3 -3 -12 -4 -19 -1 -8 3 -5 6 6 6 11 1 17 -2 13 -5z m-49 -11 c-10 -2 -28 -2 -40 0 -13 2 -5 4 17 4 22 1 32 -1 23 -4z m-75 -10 c-7 -2 -19 -2 -25 0 -7 3 -2 5 12 5 14 0 19 -2 13 -5z m-133 -29 c-25 -7 -54 -13 -65 -13 -24 1 61 27 90 27 11 1 0 -6 -25 -14z m-93 -20 c-3 -3 -12 -4 -19 -1 -8 3 -5 6 6 6 11 1 17 -2 13 -5z m-100 -30 c-3 -3 -12 -4 -19 -1 -8 3 -5 6 6 6 11 1 17 -2 13 -5z m-67 -18 c0 -6 -93 -37 -97 -32 -2 2 15 11 39 19 47 17 58 19 58 13z m-140 -50 c0 -2 -7 -7 -16 -10 -8 -3 -12 -2 -9 4 6 10 25 14 25 6z m-91 -40 c-10 -9 -89 -46 -89 -41 0 6 72 44 84 45 5 0 7 -2 5 -4z m-120 -59 c-16 -13 -79 -48 -79 -44 0 7 63 47 74 47 5 0 7 -1 5 -3z m-102 -219 c-2 -18 -4 -4 -4 32 0 36 2 50 4 33 2 -18 2 -48 0 -65z m0 -265 c-2 -38 -3 -7 -3 67 0 74 1 105 3 68 2 -38 2 -98 0 -135z m0 -540 c-1 -87 -3 -16 -3 157 0 173 2 244 3 158 2 -87 2 -229 0 -315z m1260 275 c-2 -13 -4 -3 -4 22 0 25 2 35 4 23 2 -13 2 -33 0 -45z m-1260 -665 c-2 -37 -3 -9 -3 62 0 72 1 102 3 68 2 -34 2 -93 0 -130z m0 -326 c-1 -45 -3 -5 -3 88 0 94 2 130 3 82 2 -48 2 -125 0 -170z m0 -134 c-3 -10 -5 -2 -5 17 0 19 2 27 5 18 2 -10 2 -26 0 -35z m0 -45 c-3 -8 -6 -5 -6 6 -1 11 2 17 5 13 3 -3 4 -12 1 -19z m0 -50 c-3 -7 -5 -2 -5 12 0 14 2 19 5 13 2 -7 2 -19 0 -25z m1258 -27 c-3 -6 -14 -10 -23 -10 -15 1 -15 2 1 6 9 2 17 9 17 15 0 6 3 9 6 5 3 -3 3 -10 -1 -16z m-1258 -38 c-3 -10 -5 -2 -5 17 0 19 2 27 5 18 2 -10 2 -26 0 -35z m1116 20 c-13 -2 -35 -2 -50 0 -16 2 -5 4 22 4 28 0 40 -2 28 -4z m54 1 c-3 -3 -12 -4 -19 -1 -8 3 -5 6 6 6 11 1 17 -2 13 -5z m-144 -11 c-7 -2 -19 -2 -25 0 -7 3 -2 5 12 5 14 0 19 -2 13 -5z m-70 -10 c-7 -2 -19 -2 -25 0 -7 3 -2 5 12 5 14 0 19 -2 13 -5z m-56 -9 c-3 -3 -12 -4 -19 -1 -8 3 -5 6 6 6 11 1 17 -2 13 -5z m-144 -31 c-7 -2 -19 -2 -25 0 -7 3 -2 5 12 5 14 0 19 -2 13 -5z m-76 -19 c-3 -3 -12 -4 -19 -1 -8 3 -5 6 6 6 11 1 17 -2 13 -5z m-680 -161 c-2 -32 -3 -8 -3 52 0 61 1 87 3 58 2 -29 2 -78 0 -110z m628 147 c-11 -5 -27 -9 -35 -9 -9 0 -8 4 5 9 11 5 27 9 35 9 9 0 8 -4 -5 -9z m-108 -36 c-3 -3 -12 -4 -19 -1 -8 3 -5 6 6 6 11 1 17 -2 13 -5z m-102 -33 c-6 -5 -21 -11 -35 -15 -21 -5 -20 -3 5 9 35 17 42 18 30 6z m-115 -45 c0 -2 -7 -7 -16 -10 -8 -3 -12 -2 -9 4 6 10 25 14 25 6z m-185 -96 c-3 -5 -12 -10 -18 -10 -7 0 -6 4 3 10 19 12 23 12 15 0z m-35 -15 c0 -2 -10 -9 -22 -15 -22 -11 -22 -10 -4 4 21 17 26 19 26 11z" fill="#438866"/>
<path d="M6450 6085 l0 -585 110 0 110 0 1 418 0 417 38 -110 c21 -60 74 -207 118 -325 44 -118 96 -257 114 -308 l33 -93 94 3 94 3 53 145 c29 80 87 237 129 349 42 113 87 234 99 270 l22 66 3 -418 2 -418 105 3 c58 2 105 6 105 11 0 4 0 266 0 582 l0 575 -143 0 -143 0 -48 -127 c-86 -227 -254 -688 -257 -707 -6 -30 -26 -30 -33 -1 -4 15 -75 209 -158 431 l-151 404 -148 0 -149 0 0 -585z m22 383 c-1 -106 -4 -204 -6 -218 -2 -14 -4 73 -4 193 0 119 2 217 6 217 4 0 6 -87 4 -192z m155 186 c-3 -3 -12 -4 -19 -1 -8 3 -5 6 6 6 11 1 17 -2 13 -5z m803 2 c0 -2 -7 -7 -16 -10 -8 -3 -12 -2 -9 4 6 10 25 14 25 6z m237 -133 c-2 -27 -3 -5 -3 47 0 52 1 74 3 48 2 -27 2 -69 0 -95z m-893 37 c5 -17 4 -20 -2 -10 -5 8 -13 26 -16 40 -5 17 -4 20 2 10 5 -8 13 -26 16 -40z m607 13 c-12 -20 -14 -14 -5 12 4 9 9 14 11 11 3 -2 0 -13 -6 -23z m-18 -48 c-3 -9 -8 -14 -10 -11 -3 3 -2 9 2 15 9 16 15 13 8 -4z m-539 -102 c23 -66 13 -65 -11 2 -11 30 -17 52 -13 50 5 -3 15 -26 24 -52z m843 -665 c-1 -134 -2 -27 -2 237 0 264 1 373 2 243 2 -130 2 -346 0 -480z m-807 567 c0 -5 -5 -3 -10 5 -5 8 -10 20 -10 25 0 6 5 3 10 -5 5 -8 10 -19 10 -25z m-203 -62 c-3 -10 -5 -2 -5 17 0 19 2 27 5 18 2 -10 2 -26 0 -35z m612 8 c-6 -18 -13 -30 -15 -28 -2 2 1 18 7 36 6 18 13 30 15 28 2 -2 -1 -18 -7 -36z m218 -553 c-1 -112 -2 -23 -2 197 0 220 1 311 2 203 2 -108 2 -288 0 -400z m-66 531 c-5 -13 -10 -19 -10 -12 -1 15 10 45 15 40 3 -2 0 -15 -5 -28z m-764 -61 c-2 -13 -4 -5 -4 17 -1 22 1 32 4 23 2 -10 2 -28 0 -40z m583 5 c-11 -17 -11 -17 -6 0 3 10 6 24 7 30 0 9 2 9 5 0 3 -7 0 -20 -6 -30z m-773 -30 c-3 -10 -5 -2 -5 17 0 19 2 27 5 18 2 -10 2 -26 0 -35z m283 12 c0 -5 -5 -3 -10 5 -5 8 -10 20 -10 25 0 6 5 3 10 -5 5 -8 10 -19 10 -25z m641 -12 c-12 -20 -14 -14 -5 12 4 9 9 14 11 11 3 -2 0 -13 -6 -23z m-180 -50 c-12 -20 -14 -14 -5 12 4 9 9 14 11 11 3 -2 0 -13 -6 -23z m-431 -18 c0 -5 -5 -3 -10 5 -5 8 -10 20 -10 25 0 6 5 3 10 -5 5 -8 10 -19 10 -25z m409 -44 c-6 -18 -13 -30 -15 -28 -2 2 1 18 7 36 6 18 13 30 15 28 2 -2 -1 -18 -7 -36z m-219 -16 c0 -5 -5 -3 -10 5 -5 8 -10 20 -10 25 0 6 5 3 10 -5 5 -8 10 -19 10 -25z m-503 -32 c-3 -10 -5 -2 -5 17 0 19 2 27 5 18 2 -10 2 -26 0 -35z m533 -48 c0 -5 -5 -3 -10 5 -5 8 -10 20 -10 25 0 6 5 3 10 -5 5 -8 10 -19 10 -25z m309 -14 c-6 -18 -13 -30 -15 -28 -2 2 1 18 7 36 6 18 13 30 15 28 2 -2 -1 -18 -7 -36z m-469 -6 c0 -5 -5 -3 -10 5 -5 8 -10 20 -10 25 0 6 5 3 10 -5 5 -8 10 -19 10 -25z m-373 3 c-3 -8 -6 -5 -6 6 -1 11 2 17 5 13 3 -3 4 -12 1 -19z m673 -15 c-11 -17 -11 -17 -6 0 3 10 6 24 7 30 0 9 2 9 5 0 3 -7 0 -20 -6 -30z m141 -50 c-12 -20 -14 -14 -5 12 4 9 9 14 11 11 3 -2 0 -13 -6 -23z m-814 -80 c-2 -21 -4 -6 -4 32 0 39 2 55 4 38 2 -18 2 -50 0 -70z m650 65 c-3 -8 -6 -5 -6 6 -1 11 2 17 5 13 3 -3 4 -12 1 -19z m-224 -60 c9 -31 2 -33 -11 -3 -6 14 -8 25 -3 25 5 0 11 -10 14 -22z m356 -17 c-6 -18 -13 -30 -15 -28 -2 2 1 18 7 36 6 18 13 30 15 28 2 -2 -1 -18 -7 -36z m-777 -199 c2 -39 0 -72 -4 -72 -5 0 -7 48 -6 108 1 109 5 96 10 -36z m477 53 c0 -5 -4 -3 -9 5 -5 8 -9 22 -9 30 0 16 17 -16 18 -35z m217 -80 c-10 -25 -21 -45 -26 -45 -4 0 1 17 11 37 10 21 19 44 19 52 0 8 3 11 6 8 4 -4 -1 -27 -10 -52z m-149 -41 c-3 -3 -12 -4 -19 -1 -8 3 -5 6 6 6 11 1 17 -2 13 -5z" fill="#438866"/>
<path d="M9345 6658 c-38 -105 -59 -167 -269 -782 -69 -203 -126 -371 -126 -373 0 -2 53 -2 117 -1 l117 3 38 115 c20 63 37 123 38 133 0 16 17 17 223 17 l222 0 43 -135 42 -135 120 0 120 0 -10 23 c-14 32 -112 320 -250 732 -66 198 -126 372 -132 388 l-10 27 -140 0 c-102 0 -140 -3 -143 -12z m284 -30 c15 -43 8 -45 -11 -3 -8 19 -12 35 -8 35 5 0 13 -14 19 -32z m-299 -75 c-11 -17 -11 -17 -6 0 3 10 6 24 7 30 0 9 2 9 5 0 3 -7 0 -20 -6 -30z m-20 -60 c-11 -17 -11 -17 -6 0 3 10 6 24 7 30 0 9 2 9 5 0 3 -7 0 -20 -6 -30z m400 -108 c17 -48 29 -89 27 -91 -2 -3 -17 33 -32 78 -15 46 -30 90 -33 98 -3 8 -2 12 1 9 4 -3 21 -45 37 -94z m-257 10 c-8 -25 -17 -45 -20 -45 -4 0 2 25 18 68 16 42 18 22 2 -23z m111 -178 c37 -122 71 -230 73 -239 5 -17 -7 -18 -152 -18 -127 0 -156 3 -152 13 3 8 24 74 47 148 70 227 101 319 108 319 4 0 38 -100 76 -223z m-137 101 c-3 -8 -6 -5 -6 6 -1 11 2 17 5 13 3 -3 4 -12 1 -19z m-180 -10 c-3 -8 -6 -5 -6 6 -1 11 2 17 5 13 3 -3 4 -12 1 -19z m164 -39 c-5 -13 -10 -19 -10 -12 -1 15 10 45 15 40 3 -2 0 -15 -5 -28z m-191 -36 c-11 -17 -11 -17 -6 0 3 10 6 24 7 30 0 9 2 9 5 0 3 -7 0 -20 -6 -30z m357 -5 c-3 -8 -6 -5 -6 6 -1 11 2 17 5 13 3 -3 4 -12 1 -19z m217 -88 c5 -20 3 -19 -8 5 -7 17 -16 41 -20 55 -5 20 -3 19 8 -5 7 -16 16 -41 20 -55z m34 -105 c0 -5 -6 4 -13 20 -8 17 -14 37 -14 45 0 8 7 -1 14 -20 7 -19 13 -39 13 -45z m-481 23 c-3 -8 -6 -5 -6 6 -1 11 2 17 5 13 3 -3 4 -12 1 -19z m527 -158 c5 -20 3 -19 -8 5 -7 17 -16 41 -20 55 -5 20 -3 19 8 -5 7 -16 16 -41 20 -55z m-763 13 c-12 -20 -14 -14 -5 12 4 9 9 14 11 11 3 -2 0 -13 -6 -23z m797 -118 c0 -5 -6 4 -13 20 -8 17 -14 37 -14 45 0 8 7 -1 14 -20 7 -19 13 -39 13 -45z m31 -85 c0 -8 -7 1 -14 20 -18 46 -17 64 0 25 8 -16 14 -37 14 -45z m-709 -7 c-11 -17 -11 -17 -6 0 3 10 6 24 7 30 0 9 2 9 5 0 3 -7 0 -20 -6 -30z m530 -18 c0 -5 -5 -3 -10 5 -5 8 -10 20 -10 25 0 6 5 3 10 -5 5 -8 10 -19 10 -25z m-549 -52 c-12 -20 -14 -14 -5 12 4 9 9 14 11 11 3 -2 0 -13 -6 -23z m774 -59 c4 -25 3 -24 -8 6 -8 19 -17 46 -20 60 -5 19 -3 17 8 -6 7 -17 16 -44 20 -60z m-985 19 c-11 -17 -11 -17 -6 0 3 10 6 24 7 30 0 9 2 9 5 0 3 -7 0 -20 -6 -30z m813 -70 c6 -9 6 -13 -1 -13 -10 0 -33 53 -31 74 0 6 5 -2 11 -19 6 -16 15 -36 21 -42z m-644 -4 c-8 -5 -23 -8 -34 -7 -17 1 -16 1 3 5 13 3 26 12 29 21 5 12 8 13 11 3 2 -7 -2 -17 -9 -22z m836 11 c3 -5 1 -10 -4 -10 -6 0 -11 5 -11 10 0 6 2 10 4 10 3 0 8 -4 11 -10z m-1004 -18 c-7 -2 -18 1 -23 6 -8 8 -4 9 13 5 13 -4 18 -8 10 -11z m897 1 c-10 -2 -28 -2 -40 0 -13 2 -5 4 17 4 22 1 32 -1 23 -4z" fill="#438866"/>
<path d="M10140 6085 l0 -585 110 0 110 0 0 585 0 585 -110 0 -110 0 0 -585z m210 0 c0 -541 -1 -575 -17 -575 -13 0 -15 2 -5 8 10 7 12 125 10 575 -2 312 0 567 5 567 4 0 7 -259 7 -575z m-193 328 c-2 -16 -4 -5 -4 22 0 28 2 40 4 28 2 -13 2 -35 0 -50z m0 -85 c-3 -8 -6 -5 -6 6 -1 11 2 17 5 13 3 -3 4 -12 1 -19z m0 -285 c-2 -38 -3 -7 -3 67 0 74 1 105 3 68 2 -38 2 -98 0 -135z m0 -245 c-2 -29 -3 -6 -3 52 0 58 1 81 3 53 2 -29 2 -77 0 -105z m0 -130 c-3 -7 -5 -2 -5 12 0 14 2 19 5 13 2 -7 2 -19 0 -25z m0 -50 c-3 -7 -5 -2 -5 12 0 14 2 19 5 13 2 -7 2 -19 0 -25z m0 -95 c-3 -10 -5 -2 -5 17 0 19 2 27 5 18 2 -10 2 -26 0 -35z m40 -9 c-3 -3 -12 -4 -19 -1 -8 3 -5 6 6 6 11 1 17 -2 13 -5z" fill="#438866"/>
<path d="M7760 6373 c0 -5 9 -33 21 -63 82 -217 238 -622 270 -703 l39 -98 -26 -52 c-45 -90 -93 -128 -167 -130 l-41 -2 -12 -75 c-13 -85 -12 -86 54 -96 137 -21 260 47 335 183 14 27 104 264 200 528 97 264 178 488 182 498 7 16 -1 17 -111 15 l-119 -3 -63 -205 c-35 -113 -78 -249 -94 -303 -17 -54 -34 -94 -38 -90 -9 10 -190 573 -190 591 0 9 -31 12 -120 12 -66 0 -120 -3 -120 -7z m173 -20 c-29 -2 -77 -2 -105 0 -29 2 -6 3 52 3 58 0 81 -1 53 -3z m659 -17 c-5 -18 -7 -18 -10 -3 -3 15 -16 17 -93 17 -61 0 -89 -4 -89 -12 0 -6 -3 -9 -6 -5 -3 3 -3 11 1 17 4 7 42 10 105 9 94 -1 97 -2 92 -23z m-782 -41 c0 -5 -5 -3 -10 5 -5 8 -10 20 -10 25 0 6 5 3 10 -5 5 -8 10 -19 10 -25z m200 -20 c0 -5 -5 -3 -10 5 -5 8 -10 20 -10 25 0 6 5 3 10 -5 5 -8 10 -19 10 -25z m371 8 c-12 -20 -14 -14 -5 12 4 9 9 14 11 11 3 -2 0 -13 -6 -23z m190 -7 c-14 -36 -22 -33 -9 5 6 16 12 28 14 26 3 -2 0 -16 -5 -31z m-533 -91 c0 -5 -6 4 -13 20 -8 17 -14 37 -14 45 0 8 7 -1 14 -20 7 -19 13 -39 13 -45z m318 19 c-8 -27 -15 -43 -15 -35 -1 18 21 92 26 87 2 -2 -2 -26 -11 -52z m-517 14 c6 -18 7 -28 2 -23 -10 12 -25 55 -18 55 3 0 10 -15 16 -32z m670 -107 c-6 -18 -13 -30 -15 -28 -2 2 1 18 7 36 6 18 13 30 15 28 2 -2 -1 -18 -7 -36z m-182 -3 c-3 -8 -6 -5 -6 6 -1 11 2 17 5 13 3 -3 4 -12 1 -19z m-408 -103 c0 -11 -9 5 -19 35 -11 30 -20 57 -19 60 2 12 38 -77 38 -95z m161 60 c0 -5 -5 -3 -10 5 -5 8 -10 20 -10 25 0 6 5 3 10 -5 5 -8 10 -19 10 -25z m227 -17 c-3 -8 -6 -5 -6 6 -1 11 2 17 5 13 3 -3 4 -12 1 -19z m167 -32 c-9 -26 -18 -45 -20 -43 -2 2 3 25 12 51 9 26 18 45 20 43 2 -2 -3 -25 -12 -51z m-356 -76 c0 -8 -8 8 -18 35 -10 28 -18 57 -18 65 0 8 8 -7 18 -35 10 -27 18 -57 18 -65z m169 38 c-3 -8 -6 -5 -6 6 -1 11 2 17 5 13 3 -3 4 -12 1 -19z m-349 -23 c-3 -3 -9 2 -12 12 -6 14 -5 15 5 6 7 -7 10 -15 7 -18z m483 -82 c-12 -20 -14 -14 -5 12 4 9 9 14 11 11 3 -2 0 -13 -6 -23z m-437 -33 c5 -17 4 -20 -2 -10 -5 8 -13 26 -16 40 -5 17 -4 20 2 10 5 -8 13 -26 16 -40z m163 -2 c-3 -8 -6 -5 -6 6 -1 11 2 17 5 13 3 -3 4 -12 1 -19z m20 -60 c-3 -8 -6 -5 -6 6 -1 11 2 17 5 13 3 -3 4 -12 1 -19z m214 -9 c-5 -13 -10 -19 -10 -12 -1 15 10 45 15 40 3 -2 0 -15 -5 -28z m-30 -86 c-12 -20 -14 -14 -5 12 4 9 9 14 11 11 3 -2 0 -13 -6 -23z m-287 -53 c5 -17 4 -20 -2 -10 -5 8 -13 26 -16 40 -5 17 -4 20 2 10 5 -8 13 -26 16 -40z m227 -111 c-5 -13 -10 -19 -10 -12 -1 15 10 45 15 40 3 -2 0 -15 -5 -28z m-184 -21 c-3 -7 -5 -2 -5 12 0 14 2 19 5 13 2 -7 2 -19 0 -25z m-37 -78 c-6 -11 -13 -20 -16 -20 -2 0 0 9 6 20 6 11 13 20 16 20 2 0 0 -9 -6 -20z m-20 -33 c0 -2 -12 -14 -27 -28 l-28 -24 24 28 c23 25 31 32 31 24z m166 -55 c-21 -41 -62 -88 -99 -114 -19 -13 -9 1 23 32 31 30 62 70 69 88 8 18 16 31 18 28 2 -2 -2 -18 -11 -34z m-296 -26 c0 -2 -11 -6 -25 -8 -14 -3 -25 -1 -25 3 0 5 11 9 25 9 14 0 25 -2 25 -4z m-53 -63 c-3 -10 -5 -4 -5 12 0 17 2 24 5 18 2 -7 2 -21 0 -30z m24 -71 c-13 -2 -27 0 -32 5 -6 6 3 7 23 4 28 -4 29 -6 9 -9z m136 2 c-3 -3 -12 -4 -19 -1 -8 3 -5 6 6 6 11 1 17 -2 13 -5z m-50 -10 c-3 -3 -12 -4 -19 -1 -8 3 -5 6 6 6 11 1 17 -2 13 -5z" fill="#438866"/>
<path d="M6870 5049 c-232 -20 -410 -194 -450 -441 -23 -142 -4 -301 47 -408 36 -75 151 -189 226 -224 155 -73 365 -73 507 -1 72 36 141 104 178 173 31 58 57 140 48 149 -3 3 -52 6 -109 7 l-105 1 -16 -46 c-29 -78 -104 -135 -196 -146 -199 -23 -328 91 -355 318 -13 106 31 289 78 328 10 7 17 18 17 24 0 6 -12 0 -27 -14 l-28 -24 24 27 c13 15 28 25 33 22 5 -3 17 1 26 9 37 34 106 57 173 57 87 0 148 -22 200 -73 23 -23 39 -34 36 -24 -9 24 0 21 14 -4 8 -15 8 -19 0 -15 -14 9 -14 0 1 -41 l12 -33 112 0 112 0 -9 43 c-15 64 -55 140 -104 195 -44 48 -147 111 -210 127 -56 14 -160 20 -235 14z m77 -15 c-3 -3 -12 -4 -19 -1 -8 3 -5 6 6 6 11 1 17 -2 13 -5z m-104 -11 c-7 -2 -19 -2 -25 0 -7 3 -2 5 12 5 14 0 19 -2 13 -5z m252 -3 c13 -5 14 -9 5 -9 -8 0 -24 4 -35 9 -13 5 -14 9 -5 9 8 0 24 -4 35 -9z m-325 -10 c-8 -5 -19 -10 -25 -10 -5 0 -3 5 5 10 8 5 20 10 25 10 6 0 3 -5 -5 -10z m420 -25 c28 -14 50 -28 50 -30 0 -3 -21 5 -47 18 -27 14 -55 27 -63 30 -10 3 -11 6 -2 6 7 1 35 -10 62 -24z m-461 11 c-2 -2 -15 -9 -29 -15 -24 -11 -24 -11 -6 3 16 13 49 24 35 12z m-64 -36 c-3 -5 -16 -15 -28 -21 -19 -9 -19 -8 3 10 28 23 34 26 25 11z m-102 -85 c-20 -25 -39 -45 -41 -45 -6 0 15 27 47 63 39 43 36 31 -6 -18z m742 25 c10 -11 16 -20 13 -20 -3 0 -13 9 -23 20 -10 11 -16 20 -13 20 3 0 13 -9 23 -20z m-392 -27 c-7 -2 -19 -2 -25 0 -7 3 -2 5 12 5 14 0 19 -2 13 -5z m428 -20 c13 -16 12 -17 -3 -4 -10 7 -18 15 -18 17 0 8 8 3 21 -13z m-166 -61 c-3 -3 -11 0 -18 7 -9 10 -8 11 6 5 10 -3 15 -9 12 -12z m225 -57 c0 -5 -5 -3 -10 5 -5 8 -10 20 -10 25 0 6 5 3 10 -5 5 -8 10 -19 10 -25z m-917 10 c-3 -9 -8 -14 -10 -11 -3 3 -2 9 2 15 9 16 15 13 8 -4z m-36 -117 c-3 -8 -6 -5 -6 6 -1 11 2 17 5 13 3 -3 4 -12 1 -19z m-10 -55 c-3 -10 -5 -4 -5 12 0 17 2 24 5 18 2 -7 2 -21 0 -30z m190 -125 c-2 -29 -3 -8 -3 47 0 55 1 79 3 53 2 -26 2 -71 0 -100z m-190 -80 c-2 -13 -4 -3 -4 22 0 25 2 35 4 23 2 -13 2 -33 0 -45z m32 -118 c0 -9 -4 -8 -9 5 -5 11 -9 27 -9 35 0 9 4 8 9 -5 5 -11 9 -27 9 -35z m849 33 c-16 -2 -40 -2 -55 0 -16 2 -3 4 27 4 30 0 43 -2 28 -4z m92 -10 c0 -12 -3 -14 -8 -7 -4 7 -18 14 -32 17 -21 4 -20 4 8 6 24 1 32 -3 32 -16z m-677 -93 c18 -19 25 -29 16 -22 -9 6 -20 8 -25 4 -5 -4 -6 -3 -2 1 3 5 -9 29 -28 54 -19 24 -34 50 -34 56 0 7 10 -4 21 -23 12 -19 35 -51 52 -70z m657 23 c-11 -17 -11 -17 -6 0 3 10 6 24 7 30 0 9 2 9 5 0 3 -7 0 -20 -6 -30z m-862 -55 c17 -28 32 -53 32 -56 0 -12 -52 64 -71 103 -11 22 -14 31 -7 21 7 -10 28 -41 46 -68z m637 22 c-21 -22 -42 -40 -47 -40 -7 0 73 79 82 80 2 0 -14 -18 -35 -40z m195 -34 c0 -2 -8 -10 -17 -17 -16 -13 -17 -12 -4 4 13 16 21 21 21 13z m-441 -42 c10 -9 -55 -3 -69 6 -10 6 -2 7 25 3 22 -3 42 -7 44 -9z m118 0 c-3 -3 -12 -4 -19 -1 -8 3 -5 6 6 6 11 1 17 -2 13 -5z m293 3 c0 -2 -12 -14 -27 -28 l-28 -24 24 28 c23 25 31 32 31 24z m-726 -28 c-2 -4 6 -15 18 -23 12 -9 18 -16 12 -16 -6 0 -20 11 -32 23 -17 18 -19 24 -8 24 8 0 13 -4 10 -8z m646 -49 c-14 -11 -29 -20 -35 -20 -5 0 4 9 20 20 38 25 48 25 15 0z m-496 -46 c17 -7 24 -13 16 -13 -8 0 -33 9 -55 20 -43 20 -11 15 39 -7z m96 -24 c20 -6 21 -8 5 -8 -11 0 -29 3 -40 8 -25 11 1 11 35 0z m203 -7 c-7 -2 -19 -2 -25 0 -7 3 -2 5 12 5 14 0 19 -2 13 -5z m-66 -9 c-3 -3 -12 -4 -19 -1 -8 3 -5 6 6 6 11 1 17 -2 13 -5z" fill="#438866"/>
<path d="M9310 4490 l0 -550 110 0 110 0 0 138 0 137 31 38 c17 20 34 37 38 37 5 0 59 -77 121 -171 62 -94 118 -173 125 -175 6 -3 64 -3 128 -2 l117 3 -161 230 c-89 127 -163 235 -165 240 -2 6 27 42 66 80 81 80 96 114 18 40 l-53 -50 55 58 c55 57 67 68 54 45 -4 -7 30 23 75 67 124 121 125 115 -27 115 l-129 0 -144 -166 -144 -166 -3 301 -2 301 -110 0 -110 0 0 -550z m163 533 c-29 -2 -77 -2 -105 0 -29 2 -6 3 52 3 58 0 81 -1 53 -3z m34 -45 c-3 -8 -6 -5 -6 6 -1 11 2 17 5 13 3 -3 4 -12 1 -19z m0 -85 c-2 -16 -4 -5 -4 22 0 28 2 40 4 28 2 -13 2 -35 0 -50z m0 -65 c-3 -8 -6 -5 -6 6 -1 11 2 17 5 13 3 -3 4 -12 1 -19z m0 -90 c-3 -7 -5 -2 -5 12 0 14 2 19 5 13 2 -7 2 -19 0 -25z m553 19 c0 -1 -35 -36 -77 -77 l-77 -75 62 67 c34 36 62 69 62 73 0 4 -45 4 -101 1 l-101 -6 -50 -53 -50 -52 47 55 c26 30 55 58 64 62 15 6 221 11 221 5z m-553 -99 c-3 -7 -5 -2 -5 12 0 14 2 19 5 13 2 -7 2 -19 0 -25z m223 -31 c0 -2 -17 -19 -37 -38 l-38 -34 34 38 c33 34 41 42 41 34z m-116 -132 c-26 -30 -50 -55 -52 -55 -6 0 18 29 62 78 48 52 41 37 -10 -23z m-107 13 c-3 -7 -5 -2 -5 12 0 14 2 19 5 13 2 -7 2 -19 0 -25z m302 -184 c30 -50 17 -42 -20 14 -18 26 -26 41 -16 34 9 -8 25 -29 36 -48z m-209 -7 c0 -2 -15 -16 -32 -33 l-33 -29 29 33 c28 30 36 37 36 29z m70 -82 c0 -4 -9 4 -20 18 -11 14 -20 28 -20 32 0 4 9 -4 20 -18 11 -14 20 -28 20 -32z m249 -70 c40 -58 70 -105 67 -105 -2 0 -33 42 -68 93 -73 105 -81 117 -75 117 2 0 36 -47 76 -105z m-164 -56 c93 -146 87 -139 114 -144 34 -6 39 -15 8 -15 -16 0 -33 9 -42 23 -48 66 -163 247 -157 247 4 0 39 -50 77 -111z m266 -91 c8 -15 8 -18 0 -14 -6 4 -16 16 -22 28 -8 15 -8 18 0 14 6 -4 16 -16 22 -28z m-688 -38 c3 -11 1 -20 -4 -20 -5 0 -9 9 -9 20 0 11 2 20 4 20 2 0 6 -9 9 -20z m717 -20 c20 -6 15 -8 -25 -9 -36 0 -46 2 -35 9 17 11 25 11 60 0z m-97 -7 c-7 -2 -19 -2 -25 0 -7 3 -2 5 12 5 14 0 19 -2 13 -5z" fill="#438866"/>
<path d="M10180 4490 l0 -550 105 0 105 0 0 51 0 52 44 -41 c60 -56 133 -77 238 -69 153 12 248 95 300 260 22 72 26 217 7 293 -28 115 -103 215 -196 260 -44 22 -68 27 -136 28 -96 0 -150 -19 -216 -79 l-41 -37 0 191 0 191 -105 0 -105 0 0 -550z m113 533 l-92 -4 -4 -42 -4 -42 -1 48 -2 47 98 -2 97 -2 -92 -3z m89 -260 c2 -66 0 -119 -4 -116 -5 2 -7 86 -6 186 2 182 5 158 10 -70z m-185 80 c-3 -10 -5 -4 -5 12 0 17 2 24 5 18 2 -7 2 -21 0 -30z m0 -195 c-2 -35 -3 -9 -3 57 0 66 1 94 3 63 2 -32 2 -86 0 -120z m353 92 c-61 -21 -66 -23 -57 -14 9 9 80 33 97 33 8 0 -10 -9 -40 -19z m148 13 c-10 -2 -28 -2 -40 0 -13 2 -5 4 17 4 22 1 32 -1 23 -4z m77 -18 c39 -17 21 -18 -25 0 -19 7 -28 14 -20 14 8 0 29 -6 45 -14z m-332 -59 c-15 -19 -32 -35 -37 -35 -6 -1 5 15 24 34 43 45 50 45 13 1z m423 -8 l29 -33 -32 29 c-31 28 -38 36 -30 36 2 0 16 -15 33 -32z m-166 -74 c0 -2 -13 2 -30 11 -16 9 -30 18 -30 21 0 2 14 -2 30 -11 17 -9 30 -18 30 -21z m226 -6 c8 -16 13 -32 11 -34 -2 -3 -13 13 -24 35 -23 46 -11 45 13 -1z m-464 -3 c-16 -13 -35 -38 -42 -55 -7 -16 -16 -30 -21 -30 -5 0 -2 12 8 28 22 36 65 82 76 82 5 0 -5 -11 -21 -25z m208 3 c37 -19 51 -34 75 -83 27 -55 30 -69 30 -160 0 -85 -4 -107 -24 -148 -74 -152 -276 -139 -338 21 -27 71 -25 211 5 277 13 27 30 58 40 69 44 49 140 60 212 24z m-450 -619 c33 -2 38 -4 47 -13 5 -5 -2 -6 -17 -3 -14 4 -33 7 -42 7 -17 0 -18 21 -16 313 l3 312 2 -307 c3 -299 4 -308 23 -309z m534 575 c3 -8 2 -12 -4 -9 -6 3 -10 10 -10 16 0 14 7 11 14 -7z m220 -109 c5 -22 4 -26 -4 -15 -5 8 -10 24 -10 34 0 26 6 18 14 -19z m-597 -122 c-2 -21 -4 -4 -4 37 0 41 2 58 4 38 2 -21 2 -55 0 -75z m600 -5 c-2 -18 -4 -4 -4 32 0 36 2 50 4 33 2 -18 2 -48 0 -65z m-180 -30 c-3 -7 -5 -2 -5 12 0 14 2 19 5 13 2 -7 2 -19 0 -25z m-405 -37 c2 -17 1 -28 -4 -25 -8 5 -12 54 -4 54 2 0 6 -13 8 -29z m575 -8 c-3 -10 -5 -4 -5 12 0 17 2 24 5 18 2 -7 2 -21 0 -30z m-177 -6 c0 -7 -7 -22 -15 -33 -13 -17 -13 -16 -3 14 13 34 18 40 18 19z m160 -62 c-16 -47 -23 -40 -8 8 6 20 13 35 16 33 2 -3 -1 -21 -8 -41z m-505 -27 l40 -42 -42 34 c-35 30 -52 50 -40 50 2 0 21 -19 42 -42z m256 -38 c-13 -11 -28 -20 -35 -20 -6 0 3 9 19 19 39 25 46 25 16 1z m-161 -20 c8 -5 11 -10 5 -10 -5 0 -17 5 -25 10 -8 5 -10 10 -5 10 6 0 17 -5 25 -10z m350 -23 c0 -2 -12 -14 -27 -28 l-28 -24 24 28 c23 25 31 32 31 24z m-352 -90 c26 -9 38 -16 27 -16 -33 -1 -98 34 -130 70 l-30 33 43 -36 c23 -19 64 -42 90 -51z m-161 6 c-3 -10 -5 -2 -5 17 0 19 2 27 5 18 2 -10 2 -26 0 -35z m434 17 c-13 -11 -28 -20 -35 -20 -6 0 3 9 19 19 39 25 46 25 16 1z m-94 -36 c-3 -3 -12 -4 -19 -1 -8 3 -5 6 6 6 11 1 17 -2 13 -5z m-54 -11 c-13 -2 -35 -2 -50 0 -16 2 -5 4 22 4 28 0 40 -2 28 -4z" fill="#438866"/>
<path d="M12850 4490 l0 -550 110 0 110 0 0 148 0 148 34 33 33 32 102 -156 c56 -86 105 -155 108 -152 3 3 -8 25 -24 49 -37 54 -45 68 -40 68 10 0 77 -112 72 -120 -3 -5 0 -18 7 -30 12 -18 23 -20 130 -20 65 0 118 3 118 8 0 20 -71 111 -84 106 -8 -3 -22 10 -35 33 -19 33 -19 35 -2 15 11 -12 21 -28 24 -35 2 -6 8 -9 12 -5 4 4 -46 82 -110 173 -65 91 -120 164 -123 161 -2 -3 6 -20 20 -38 29 -39 41 -58 35 -58 -2 0 -18 20 -36 45 -40 56 -49 40 139 243 78 84 141 155 138 157 -6 7 -19 -6 -123 -119 -143 -156 -194 -208 -160 -166 15 19 53 62 84 95 32 33 84 89 116 125 58 63 59 64 35 72 -16 4 -8 6 23 3 26 -2 47 1 47 6 0 5 -55 9 -127 9 l-128 0 -135 -156 c-127 -146 -171 -204 -121 -160 17 16 21 17 16 4 -8 -20 -32 -31 -40 -18 -3 6 -6 143 -5 305 l1 295 -111 0 -110 0 0 -550z m68 533 c-10 -2 -26 -2 -35 0 -10 3 -2 5 17 5 19 0 27 -2 18 -5z m80 0 c-10 -2 -26 -2 -35 0 -10 3 -2 5 17 5 19 0 27 -2 18 -5z m52 -3 c0 -5 -7 -7 -15 -4 -8 4 -15 8 -15 10 0 2 7 4 15 4 8 0 15 -4 15 -10z m-3 -52 c-3 -7 -5 -2 -5 12 0 14 2 19 5 13 2 -7 2 -19 0 -25z m0 -65 c-3 -10 -5 -4 -5 12 0 17 2 24 5 18 2 -7 2 -21 0 -30z m0 -90 c-3 -10 -5 -2 -5 17 0 19 2 27 5 18 2 -10 2 -26 0 -35z m-170 -25 c-3 -8 -6 -5 -6 6 -1 11 2 17 5 13 3 -3 4 -12 1 -19z m583 -38 c-8 -5 -26 -9 -40 -9 l-25 1 25 8 c14 4 32 8 40 9 13 1 13 0 0 -9z m-90 -11 c-13 -6 -27 -14 -30 -18 -8 -14 -122 -143 -164 -186 l-38 -40 33 41 c117 142 186 214 204 213 17 0 16 -2 -5 -10z m-493 -36 c-3 -10 -5 -4 -5 12 0 17 2 24 5 18 2 -7 2 -21 0 -30z m170 -50 c-3 -10 -5 -2 -5 17 0 19 2 27 5 18 2 -10 2 -26 0 -35z m-170 -40 c-3 -10 -5 -2 -5 17 0 19 2 27 5 18 2 -10 2 -26 0 -35z m0 -75 c-2 -13 -4 -5 -4 17 -1 22 1 32 4 23 2 -10 2 -28 0 -40z m0 -60 c-3 -7 -5 -2 -5 12 0 14 2 19 5 13 2 -7 2 -19 0 -25z m0 -105 c-3 -10 -5 -2 -5 17 0 19 2 27 5 18 2 -10 2 -26 0 -35z m0 -75 c-2 -13 -4 -5 -4 17 -1 22 1 32 4 23 2 -10 2 -28 0 -40z m314 -43 l10 -20 -16 20 c-9 11 -21 29 -26 40 l-10 20 16 -20 c9 -11 21 -29 26 -40z m234 -60 c27 -38 41 -63 33 -55 -8 8 -37 47 -63 85 -27 39 -41 63 -33 55 8 -8 37 -46 63 -85z m-548 -32 c-2 -21 -4 -4 -4 37 0 41 2 58 4 38 2 -21 2 -55 0 -75z m388 -15 c9 -16 14 -28 12 -28 -4 0 -54 71 -70 100 -15 25 40 -43 58 -72z m-218 -100 c-2 -24 -4 -7 -4 37 0 44 2 63 4 43 2 -21 2 -57 0 -80z m-170 5 c-3 -10 -5 -4 -5 12 0 17 2 24 5 18 2 -7 2 -21 0 -30z m673 -33 c6 -11 8 -20 6 -20 -3 0 -10 9 -16 20 -6 11 -8 20 -6 20 3 0 10 -9 16 -20z m-668 -30 c2 -22 0 -40 -4 -40 -5 0 -8 18 -8 40 0 22 2 40 4 40 2 0 6 -18 8 -40z m165 -32 c-3 -8 -6 -5 -6 6 -1 11 2 17 5 13 3 -3 4 -12 1 -19z m343 7 c7 -9 8 -15 2 -15 -5 0 -12 7 -16 15 -3 8 -4 15 -2 15 2 0 9 -7 16 -15z m200 -5 c0 -5 -12 -10 -27 -9 l-28 1 25 8 c14 4 26 8 28 9 1 1 2 -3 2 -9z" fill="#438866"/>
<path d="M7810 4764 c-201 -54 -314 -250 -282 -489 6 -47 20 -106 32 -132 23 -52 85 -133 103 -133 6 0 0 12 -14 28 -14 15 -31 36 -38 47 -8 11 4 0 25 -25 22 -24 39 -49 39 -54 0 -17 83 -58 144 -73 114 -26 232 -9 330 50 97 58 151 141 178 274 13 65 14 91 5 158 -14 96 -66 209 -117 253 -113 100 -261 135 -405 96z m45 -13 c-22 -4 -51 -10 -65 -14 -20 -5 -19 -4 5 8 17 8 46 14 65 13 l35 -1 -40 -6z m132 3 c-3 -3 -12 -4 -19 -1 -8 3 -5 6 6 6 11 1 17 -2 13 -5z m118 -29 c53 -24 129 -84 108 -85 -7 0 -13 4 -13 9 0 14 -77 61 -144 87 -33 14 -47 22 -31 19 17 -4 53 -17 80 -30z m-435 -58 c0 -2 -12 -14 -27 -28 l-28 -24 24 28 c23 25 31 32 31 24z m596 -89 c21 -41 11 -34 -21 15 -16 24 -21 36 -11 28 10 -8 24 -27 32 -43z m-263 17 c73 -30 117 -122 117 -244 0 -151 -49 -239 -145 -259 -103 -22 -193 34 -226 139 -6 19 -11 73 -11 120 -1 123 41 211 117 245 40 18 104 17 148 -1z m58 -12 c13 -16 12 -17 -3 -4 -10 7 -18 15 -18 17 0 8 8 3 21 -13z m-291 -43 c-6 -11 -13 -20 -16 -20 -2 0 0 9 6 20 6 11 13 20 16 20 2 0 0 -9 -6 -20z m359 -75 c0 -12 -5 -7 -13 15 -26 68 -27 75 -7 40 11 -19 20 -44 20 -55z m170 35 c0 -10 -3 -8 -9 5 -12 27 -12 43 0 25 5 -8 9 -22 9 -30z m-558 -17 c-12 -20 -14 -14 -5 12 4 9 9 14 11 11 3 -2 0 -13 -6 -23z m566 -45 c-3 -7 -5 -2 -5 12 0 14 2 19 5 13 2 -7 2 -19 0 -25z m-580 0 c-3 -8 -6 -5 -6 6 -1 11 2 17 5 13 3 -3 4 -12 1 -19z m410 -20 c-3 -8 -6 -5 -6 6 -1 11 2 17 5 13 3 -3 4 -12 1 -19z m-420 -90 c-2 -18 -4 -6 -4 27 0 33 2 48 4 33 2 -15 2 -42 0 -60z m600 10 c-2 -13 -4 -3 -4 22 0 25 2 35 4 23 2 -13 2 -33 0 -45z m-170 -20 c-3 -8 -6 -5 -6 6 -1 11 2 17 5 13 3 -3 4 -12 1 -19z m170 -45 c-3 -10 -5 -4 -5 12 0 17 2 24 5 18 2 -7 2 -21 0 -30z m-187 -50 c-11 -17 -11 -17 -6 0 3 10 7 31 7 45 l2 27 4 -27 c2 -15 -1 -35 -7 -45z m-403 15 c-3 -8 -6 -5 -6 6 -1 11 2 17 5 13 3 -3 4 -12 1 -19z m23 -53 c0 -5 -5 -3 -10 5 -5 8 -10 20 -10 25 0 6 5 3 10 -5 5 -8 10 -19 10 -25z m370 7 c0 -5 -7 -17 -15 -28 -14 -18 -14 -17 -4 9 12 27 19 34 19 19z m-528 -67 c9 -20 9 -20 -6 -1 -9 11 -16 27 -15 35 0 14 1 14 6 1 3 -8 10 -24 15 -35z m668 -15 c-6 -11 -13 -20 -16 -20 -2 0 0 9 6 20 6 11 13 20 16 20 2 0 0 -9 -6 -20z m-409 -28 c-7 -2 -18 1 -23 6 -8 8 -4 9 13 5 13 -4 18 -8 10 -11z m72 -19 c-7 -2 -19 -2 -25 0 -7 3 -2 5 12 5 14 0 19 -2 13 -5z m282 -23 c-16 -16 -32 -30 -37 -30 -8 0 53 59 61 60 3 0 -8 -13 -24 -30z m-475 -56 c0 -2 -9 0 -20 6 -11 6 -20 13 -20 16 0 2 9 0 20 -6 11 -6 20 -13 20 -16z m390 1 c0 -2 -10 -9 -22 -15 -22 -11 -22 -10 -4 4 21 17 26 19 26 11z m-231 -41 c9 -8 -65 -2 -84 6 -13 6 -2 7 30 3 28 -3 52 -7 54 -9z m124 -1 c-7 -2 -19 -2 -25 0 -7 3 -2 5 12 5 14 0 19 -2 13 -5z" fill="#438866"/>
<path d="M8692 4764 c-75 -20 -109 -40 -167 -98 -96 -96 -137 -233 -116 -388 14 -100 46 -173 105 -236 118 -126 322 -156 492 -72 75 37 126 91 168 179 30 64 31 70 31 201 0 130 -1 137 -31 200 -17 36 -43 80 -59 98 -92 110 -268 158 -423 116z m168 2 c0 -2 -13 -6 -29 -8 -17 -2 -28 -1 -25 4 5 8 54 12 54 4z m-130 -13 c-38 -8 -123 -43 -145 -61 l-20 -16 20 21 c24 26 110 62 145 61 l25 -1 -25 -4z m195 -3 c25 -11 -1 -11 -35 0 -20 6 -21 8 -5 8 11 0 29 -3 40 -8z m109 -49 c23 -16 49 -38 56 -48 11 -14 9 -13 -10 3 -14 12 -43 33 -65 48 -22 14 -36 26 -32 26 5 0 27 -13 51 -29z m-474 -24 c0 -2 -10 -12 -22 -23 l-23 -19 19 23 c18 21 26 27 26 19z m591 -110 c30 -59 18 -52 -18 10 -18 30 -26 49 -17 42 8 -7 24 -30 35 -52z m-262 28 c71 -36 111 -127 111 -249 0 -116 -30 -187 -99 -233 -47 -32 -135 -32 -182 0 -42 28 -76 77 -90 131 -17 64 -7 213 18 261 22 41 66 88 93 98 31 11 122 7 149 -8z m62 -22 c13 -16 12 -17 -3 -4 -10 7 -18 15 -18 17 0 8 8 3 21 -13z m58 -103 c0 -8 -8 5 -19 29 -11 24 -20 46 -20 50 1 12 39 -64 39 -79z m-388 13 c-12 -20 -14 -14 -5 12 4 9 9 14 11 11 3 -2 0 -13 -6 -23z m556 5 c-3 -8 -6 -5 -6 6 -1 11 2 17 5 13 3 -3 4 -12 1 -19z m10 -40 c-3 -8 -6 -5 -6 6 -1 11 2 17 5 13 3 -3 4 -12 1 -19z m-580 -20 c-3 -8 -6 -5 -6 6 -1 11 2 17 5 13 3 -3 4 -12 1 -19z m410 -20 c-3 -7 -5 -2 -5 12 0 14 2 19 5 13 2 -7 2 -19 0 -25z m-590 0 c-3 -8 -6 -5 -6 6 -1 11 2 17 5 13 3 -3 4 -12 1 -19z m770 -70 c-2 -13 -4 -3 -4 22 0 25 2 35 4 23 2 -13 2 -33 0 -45z m-170 -5 c-3 -10 -5 -2 -5 17 0 19 2 27 5 18 2 -10 2 -26 0 -35z m-600 -45 c-3 -7 -5 -2 -5 12 0 14 2 19 5 13 2 -7 2 -19 0 -25z m180 -30 c-3 -8 -6 -5 -6 6 -1 11 2 17 5 13 3 -3 4 -12 1 -19z m410 -10 c-3 -7 -5 -2 -5 12 0 14 2 19 5 13 2 -7 2 -19 0 -25z m170 -10 c-3 -8 -6 -5 -6 6 -1 11 2 17 5 13 3 -3 4 -12 1 -19z m-729 -73 c0 -5 -6 4 -13 20 -8 17 -14 37 -14 45 0 8 7 -1 14 -20 7 -19 13 -39 13 -45z m719 33 c-3 -8 -6 -5 -6 6 -1 11 2 17 5 13 3 -3 4 -12 1 -19z m-212 -56 l-28 -27 24 31 c13 17 26 30 28 27 3 -2 -8 -16 -24 -31z m-285 -17 c19 -19 32 -35 29 -35 -3 0 -20 16 -39 35 -19 19 -32 35 -29 35 3 0 20 -16 39 -35z m460 -15 c-6 -11 -13 -20 -16 -20 -2 0 0 9 6 20 6 11 13 20 16 20 2 0 0 -9 -6 -20z m-610 -55 c42 -48 42 -48 6 -15 -21 19 -42 44 -48 55 -6 11 -9 18 -6 15 2 -3 24 -27 48 -55z m287 9 c-3 -3 -12 -4 -19 -1 -8 3 -5 6 6 6 11 1 17 -2 13 -5z m293 3 c0 -2 -15 -16 -32 -33 l-33 -29 29 33 c28 30 36 37 36 29z m-389 -112 c42 -9 54 -14 33 -14 -37 -1 -149 35 -164 54 -6 7 6 5 28 -6 22 -11 68 -26 103 -34z m279 25 c-19 -11 -39 -19 -45 -19 -5 0 6 8 25 19 19 11 40 19 45 19 6 0 -6 -8 -25 -19z m-97 -37 c-7 -2 -21 -2 -30 0 -10 3 -4 5 12 5 17 0 24 -2 18 -5z m-80 -10 c-7 -2 -19 -2 -25 0 -7 3 -2 5 12 5 14 0 19 -2 13 -5z" fill="#438866"/>
<path d="M11357 4770 c-56 -15 -114 -47 -163 -92 -87 -81 -128 -187 -128 -338 0 -107 18 -176 67 -253 81 -129 271 -195 436 -153 71 18 147 57 144 73 -1 6 10 21 25 34 l27 24 -24 -27 c-14 -16 -20 -28 -13 -28 18 0 80 82 109 146 38 84 45 241 15 341 -53 173 -183 271 -372 279 -47 2 -102 -1 -123 -6z m40 -16 c-3 -3 -12 -4 -19 -1 -8 3 -5 6 6 6 11 1 17 -2 13 -5z m156 -1 c-7 -2 -19 -2 -25 0 -7 3 -2 5 12 5 14 0 19 -2 13 -5z m-196 -9 c-3 -3 -12 -4 -19 -1 -8 3 -5 6 6 6 11 1 17 -2 13 -5z m-47 -14 c-8 -5 -19 -10 -25 -10 -5 0 -3 5 5 10 8 5 20 10 25 10 6 0 3 -5 -5 -10z m345 -10 c3 -6 -1 -7 -9 -4 -18 7 -21 14 -7 14 6 0 13 -4 16 -10z m-385 -3 c0 -1 -21 -20 -47 -41 l-48 -38 44 41 c40 38 51 46 51 38z m450 -36 c19 -16 33 -32 30 -34 -3 -3 -22 10 -42 29 -46 41 -37 45 12 5z m-233 -47 c-3 -3 -12 -4 -19 -1 -8 3 -5 6 6 6 11 1 17 -2 13 -5z m78 -24 c3 -6 -1 -7 -9 -4 -18 7 -21 14 -7 14 6 0 13 -4 16 -10z m7 -32 c20 -15 46 -49 59 -75 21 -42 24 -62 24 -158 0 -102 -2 -114 -28 -161 -37 -66 -85 -94 -158 -94 -121 0 -191 96 -192 259 -1 94 22 167 66 208 50 47 67 54 133 50 48 -2 69 -9 96 -29z m228 2 c6 -11 8 -20 6 -20 -3 0 -10 9 -16 20 -6 11 -8 20 -6 20 3 0 10 -9 16 -20z m-689 -74 c-14 -36 -22 -33 -9 5 6 16 12 28 14 26 3 -2 0 -16 -5 -31z m544 3 c9 -17 15 -34 13 -39 -2 -5 -11 9 -20 30 -20 47 -15 53 7 9z m-367 -4 c-6 -14 -13 -23 -15 -21 -5 5 15 46 22 46 3 0 -1 -11 -7 -25z m-191 -57 c-3 -8 -6 -5 -6 6 -1 11 2 17 5 13 3 -3 4 -12 1 -19z m761 -48 c0 -22 -1 -22 -8 5 -4 17 -8 39 -8 50 0 16 2 15 8 -5 4 -14 8 -36 8 -50z m-771 -103 c-2 -23 -3 -1 -3 48 0 50 1 68 3 42 2 -26 2 -67 0 -90z m170 21 c-2 -13 -4 -5 -4 17 -1 22 1 32 4 23 2 -10 2 -28 0 -40z m593 -68 l-11 -25 6 25 c2 14 6 48 7 75 l2 50 3 -50 c2 -28 -1 -62 -7 -75z m-173 23 c-3 -10 -5 -4 -5 12 0 17 2 24 5 18 2 -7 2 -21 0 -30z m-17 -70 c-11 -17 -11 -17 -6 0 3 10 6 24 7 30 0 9 2 9 5 0 3 -7 0 -20 -6 -30z m-551 -18 c0 -5 -4 -3 -9 5 -5 8 -9 22 -9 30 0 16 17 -16 18 -35z m717 -20 c-10 -24 -21 -47 -25 -50 -5 -2 1 20 13 49 12 30 23 52 25 50 2 -2 -4 -24 -13 -49z m-492 -34 c11 -13 39 -32 61 -42 22 -10 34 -19 27 -19 -39 0 -125 75 -136 120 -6 22 -5 21 10 -5 9 -16 26 -41 38 -54z m-150 -80 c-5 -5 -29 24 -45 54 -6 11 2 4 19 -15 16 -19 28 -37 26 -39z m81 -65 c6 -4 1 -4 -10 2 -11 6 -29 21 -40 34 -19 22 -19 22 10 -2 17 -14 35 -29 40 -34z m385 -11 c-14 -8 -29 -14 -35 -14 -5 0 1 6 15 14 14 8 30 14 35 14 6 0 -1 -6 -15 -14z m-231 -31 c9 -8 -45 -2 -64 6 -14 7 -8 8 20 3 22 -3 42 -7 44 -9z m128 0 c-3 -3 -12 -4 -19 -1 -8 3 -5 6 6 6 11 1 17 -2 13 -5z m-59 -11 c-10 -2 -28 -2 -40 0 -13 2 -5 4 17 4 22 1 32 -1 23 -4z" fill="#438866"/>
<path d="M12243 4770 c-60 -13 -119 -46 -173 -96 -169 -158 -174 -481 -8 -642 143 -141 403 -147 557 -15 49 42 97 116 118 184 26 82 23 237 -6 311 -45 117 -132 209 -231 244 -53 19 -198 27 -257 14z m206 -16 c8 -7 -63 -2 -94 7 -20 5 -9 6 30 2 33 -3 62 -7 64 -9z m-214 -14 c-38 -10 -72 -16 -74 -15 -6 6 92 34 119 34 14 0 -6 -8 -45 -19z m270 -8 c-3 -3 -11 0 -18 7 -9 10 -8 11 6 5 10 -3 15 -9 12 -12z m-366 -25 c-2 -2 -29 -25 -59 -52 l-55 -48 52 51 c28 29 55 52 59 52 4 0 5 -1 3 -3z m492 -54 c8 -9 -5 -2 -28 17 -24 18 -43 35 -43 37 0 7 56 -35 71 -54z m-301 -17 c0 -2 -9 -6 -20 -9 -11 -3 -18 -1 -14 4 5 9 34 13 34 5z m37 -2 c-3 -3 -12 -4 -19 -1 -8 3 -5 6 6 6 11 1 17 -2 13 -5z m294 -21 c13 -16 12 -17 -3 -4 -10 7 -18 15 -18 17 0 8 8 3 21 -13z m-212 -30 c63 -47 94 -126 95 -238 0 -118 -40 -202 -116 -241 -42 -22 -149 -16 -177 10 -10 9 -26 19 -35 20 -19 3 -56 36 -56 50 0 6 12 -2 26 -19 28 -34 28 -30 -7 40 -21 43 -24 64 -24 150 0 92 3 104 30 153 16 30 41 62 56 73 57 40 154 41 208 2z m22 10 c13 -16 12 -17 -3 -4 -10 7 -18 15 -18 17 0 8 8 3 21 -13z m229 -47 c0 -12 -5 -7 -19 24 -11 24 -11 24 3 6 9 -11 16 -24 16 -30z m-519 -9 c-10 -9 -11 -8 -5 6 3 10 9 15 12 12 3 -3 0 -11 -7 -18z m359 -29 c0 -17 -10 -6 -25 25 l-16 32 20 -25 c11 -14 21 -28 21 -32z m7 -40 c-3 -8 -6 -5 -6 6 -1 11 2 17 5 13 3 -3 4 -12 1 -19z m180 -10 c-3 -8 -6 -5 -6 6 -1 11 2 17 5 13 3 -3 4 -12 1 -19z m-170 -40 c-3 -7 -5 -2 -5 12 0 14 2 19 5 13 2 -7 2 -19 0 -25z m-420 -20 c-3 -7 -5 -2 -5 12 0 14 2 19 5 13 2 -7 2 -19 0 -25z m600 -80 c-2 -24 -4 -7 -4 37 0 44 2 63 4 43 2 -21 2 -57 0 -80z m-600 -35 c-3 -10 -5 -4 -5 12 0 17 2 24 5 18 2 -7 2 -21 0 -30z m430 15 c-3 -8 -6 -5 -6 6 -1 11 2 17 5 13 3 -3 4 -12 1 -19z m-600 -35 c-3 -10 -5 -2 -5 17 0 19 2 27 5 18 2 -10 2 -26 0 -35z m590 -25 c-3 -7 -5 -2 -5 12 0 14 2 19 5 13 2 -7 2 -19 0 -25z m-410 0 c-3 -8 -6 -5 -6 6 -1 11 2 17 5 13 3 -3 4 -12 1 -19z m573 -35 c-11 -17 -11 -17 -6 0 3 10 7 26 7 35 1 15 2 15 6 0 2 -10 -1 -25 -7 -35z m-743 5 c-3 -8 -6 -5 -6 6 -1 11 2 17 5 13 3 -3 4 -12 1 -19z m564 -11 c-10 -9 -11 -8 -5 6 3 10 9 15 12 12 3 -3 0 -11 -7 -18z m-541 -42 c0 -5 -5 -3 -10 5 -5 8 -10 20 -10 25 0 6 5 3 10 -5 5 -8 10 -19 10 -25z m680 -45 c-6 -11 -13 -20 -16 -20 -2 0 0 9 6 20 6 11 13 20 16 20 2 0 0 -9 -6 -20z m-219 -10 c-13 -11 -28 -20 -35 -20 -6 0 3 9 19 19 39 25 46 25 16 1z m-376 -62 c38 -40 29 -37 -22 6 -20 17 -30 36 -20 36 2 0 21 -19 42 -42z m283 25 c-10 -2 -28 -2 -40 0 -13 2 -5 4 17 4 22 1 32 -1 23 -4z m257 -23 c-3 -5 -16 -15 -28 -21 -19 -9 -19 -8 3 10 28 23 34 26 25 11z m-385 -87 c3 -3 -6 -2 -20 2 -41 12 -90 34 -90 39 0 6 102 -32 110 -41z m280 17 c-8 -5 -19 -10 -25 -10 -5 0 -3 5 5 10 8 5 20 10 25 10 6 0 3 -5 -5 -10z m-233 -26 c-3 -3 -12 -4 -19 -1 -8 3 -5 6 6 6 11 1 17 -2 13 -5z m141 -1 c-10 -2 -28 -2 -40 0 -13 2 -5 4 17 4 22 1 32 -1 23 -4z m-81 -9 c-3 -3 -12 -4 -19 -1 -8 3 -5 6 6 6 11 1 17 -2 13 -5z" fill="#438866"/>
</g>
</svg>