<svg width="58" height="51" viewBox="0 0 58 51" fill="none" xmlns="http://www.w3.org/2000/svg">
<path d="M29 16C33.4188 16 37 12.4187 37 8C37 3.58125 33.4188 0 29 0C24.5813 0 21 3.58125 21 8C21 12.4187 24.5813 16 29 16ZM34.6 18H33.5562C32.1687 18.6375 30.625 19 29 19C27.375 19 25.8375 18.6375 24.4438 18H23.4C18.7625 18 15 21.7625 15 26.4V29C15 30.6562 16.3438 32 18 32H40C41.6562 32 43 30.6562 43 29V26.4C43 21.7625 39.2375 18 34.6 18Z" fill="#438866"/>
<path d="M12.0334 48V39.2727H14.9822C15.6669 39.2727 16.2266 39.3963 16.6612 39.6435C17.0987 39.8878 17.4226 40.2188 17.6328 40.6364C17.843 41.054 17.9482 41.5199 17.9482 42.0341C17.9482 42.5483 17.843 43.0156 17.6328 43.4361C17.4254 43.8565 17.1044 44.1918 16.6697 44.4418C16.2351 44.6889 15.6783 44.8125 14.9993 44.8125H12.8857V43.875H14.9652C15.4339 43.875 15.8104 43.794 16.0945 43.6321C16.3786 43.4702 16.5845 43.2514 16.7124 42.9759C16.843 42.6974 16.9084 42.3835 16.9084 42.0341C16.9084 41.6847 16.843 41.3722 16.7124 41.0966C16.5845 40.821 16.3771 40.6051 16.0902 40.4489C15.8033 40.2898 15.4226 40.2102 14.9482 40.2102H13.0902V48H12.0334ZM19.5142 48V41.4545H20.4858V42.4432H20.554C20.6733 42.1193 20.8892 41.8565 21.2017 41.6548C21.5142 41.4531 21.8665 41.3523 22.2585 41.3523C22.3324 41.3523 22.4247 41.3537 22.5355 41.3565C22.6463 41.3594 22.7301 41.3636 22.7869 41.3693V42.392C22.7528 42.3835 22.6747 42.3707 22.5526 42.3537C22.4332 42.3338 22.3068 42.3239 22.1733 42.3239C21.8551 42.3239 21.571 42.3906 21.321 42.5241C21.0739 42.6548 20.8778 42.8366 20.733 43.0696C20.5909 43.2997 20.5199 43.5625 20.5199 43.858V48H19.5142ZM26.4389 48.1364C25.848 48.1364 25.3295 47.9957 24.8835 47.7145C24.4403 47.4332 24.0938 47.0398 23.8438 46.5341C23.5966 46.0284 23.473 45.4375 23.473 44.7614C23.473 44.0795 23.5966 43.4844 23.8438 42.9759C24.0938 42.4673 24.4403 42.0724 24.8835 41.7912C25.3295 41.5099 25.848 41.3693 26.4389 41.3693C27.0298 41.3693 27.5469 41.5099 27.9901 41.7912C28.4361 42.0724 28.7827 42.4673 29.0298 42.9759C29.2798 43.4844 29.4048 44.0795 29.4048 44.7614C29.4048 45.4375 29.2798 46.0284 29.0298 46.5341C28.7827 47.0398 28.4361 47.4332 27.9901 47.7145C27.5469 47.9957 27.0298 48.1364 26.4389 48.1364ZM26.4389 47.233C26.8878 47.233 27.2571 47.1179 27.5469 46.8878C27.8366 46.6577 28.0511 46.3551 28.1903 45.9801C28.3295 45.6051 28.3991 45.1989 28.3991 44.7614C28.3991 44.3239 28.3295 43.9162 28.1903 43.5384C28.0511 43.1605 27.8366 42.8551 27.5469 42.6222C27.2571 42.3892 26.8878 42.2727 26.4389 42.2727C25.9901 42.2727 25.6207 42.3892 25.331 42.6222C25.0412 42.8551 24.8267 43.1605 24.6875 43.5384C24.5483 43.9162 24.4787 44.3239 24.4787 44.7614C24.4787 45.1989 24.5483 45.6051 24.6875 45.9801C24.8267 46.3551 25.0412 46.6577 25.331 46.8878C25.6207 47.1179 25.9901 47.233 26.4389 47.233ZM33.8548 41.4545V42.3068H30.3263V41.4545H33.8548ZM31.3832 48V40.5511C31.3832 40.1761 31.4712 39.8636 31.6474 39.6136C31.8235 39.3636 32.0522 39.1761 32.3335 39.0511C32.6147 38.9261 32.9116 38.8636 33.2241 38.8636C33.4712 38.8636 33.6729 38.8835 33.8292 38.9233C33.9854 38.9631 34.1019 39 34.1786 39.0341L33.8888 39.9034C33.8377 39.8864 33.7667 39.8651 33.6758 39.8395C33.5877 39.8139 33.4712 39.8011 33.3263 39.8011C32.994 39.8011 32.7539 39.8849 32.6062 40.0526C32.4613 40.2202 32.3888 40.4659 32.3888 40.7898V48H31.3832ZM35.2642 48V41.4545H36.2699V48H35.2642ZM35.7756 40.3636C35.5795 40.3636 35.4105 40.2969 35.2685 40.1634C35.1293 40.0298 35.0597 39.8693 35.0597 39.6818C35.0597 39.4943 35.1293 39.3338 35.2685 39.2003C35.4105 39.0668 35.5795 39 35.7756 39C35.9716 39 36.1392 39.0668 36.2784 39.2003C36.4205 39.3338 36.4915 39.4943 36.4915 39.6818C36.4915 39.8693 36.4205 40.0298 36.2784 40.1634C36.1392 40.2969 35.9716 40.3636 35.7756 40.3636ZM39.1175 39.2727V48H38.1119V39.2727H39.1175ZM43.7038 48.1364C43.0732 48.1364 42.5291 47.9972 42.0717 47.7188C41.6172 47.4375 41.2663 47.0455 41.0192 46.5426C40.7749 46.0369 40.6527 45.4489 40.6527 44.7784C40.6527 44.108 40.7749 43.517 41.0192 43.0057C41.2663 42.4915 41.6101 42.0909 42.0504 41.804C42.4936 41.5142 43.0107 41.3693 43.6016 41.3693C43.9425 41.3693 44.2791 41.4261 44.6115 41.5398C44.9439 41.6534 45.2464 41.8381 45.5192 42.0938C45.7919 42.3466 46.0092 42.6818 46.1712 43.0994C46.3331 43.517 46.4141 44.0312 46.4141 44.642V45.0682H41.3686V44.1989H45.3913C45.3913 43.8295 45.3175 43.5 45.1697 43.2102C45.0249 42.9205 44.8175 42.6918 44.5476 42.5241C44.2805 42.3565 43.9652 42.2727 43.6016 42.2727C43.201 42.2727 42.8544 42.3722 42.5618 42.571C42.272 42.767 42.049 43.0227 41.8928 43.3381C41.7365 43.6534 41.6584 43.9915 41.6584 44.3523V44.9318C41.6584 45.4261 41.7436 45.8452 41.9141 46.1889C42.0874 46.5298 42.3274 46.7898 42.6342 46.9688C42.9411 47.1449 43.2976 47.233 43.7038 47.233C43.968 47.233 44.2067 47.196 44.4197 47.1222C44.6357 47.0455 44.8217 46.9318 44.978 46.7812C45.1342 46.6278 45.255 46.4375 45.3402 46.2102L46.3118 46.483C46.2095 46.8125 46.0376 47.1023 45.7962 47.3523C45.5547 47.5994 45.2564 47.7926 44.9013 47.9318C44.5462 48.0682 44.147 48.1364 43.7038 48.1364Z" fill="#438866"/>
</svg>
